<?xml version="1.0" encoding="UTF-8" standalone="no"?>
<!DOCTYPE svg PUBLIC "-//W3C//DTD SVG 1.1//EN"
 "http://www.w3.org/Graphics/SVG/1.1/DTD/svg11.dtd">
<!-- Generated by graphviz version 14.0.1 (20251006.0113)
 -->
<!-- Title: packages_Swit&#45;&#45;source&#45;roots Pages: 1 -->
<svg width="4342pt" height="476pt"
 viewBox="0.00 0.00 4342.00 476.00" xmlns="http://www.w3.org/2000/svg" xmlns:xlink="http://www.w3.org/1999/xlink">
<g id="graph0" class="graph" transform="scale(1 1) rotate(0) translate(4 472)">
<title>packages_Swit&#45;&#45;source&#45;roots</title>
<polygon fill="white" stroke="none" points="-4,4 -4,-472 4338.38,-472 4338.38,4 -4,4"/>
<!-- Swit -->
<g id="node1" class="node">
<title>Swit</title>
<polygon fill="none" stroke="black" points="2315.25,-36 2261.25,-36 2261.25,0 2315.25,0 2315.25,-36"/>
<text xml:space="preserve" text-anchor="start" x="2275.88" y="-12.95" font-family="Times New Roman,serif" font-size="14.00">Swit</text>
</g>
<!-- Swit.SwitSDK -->
<g id="node2" class="node">
<title>Swit.SwitSDK</title>
<polygon fill="none" stroke="black" points="358.38,-324 262.12,-324 262.12,-288 358.38,-288 358.38,-324"/>
<text xml:space="preserve" text-anchor="start" x="270.12" y="-300.95" font-family="Times New Roman,serif" font-size="14.00">Swit.SwitSDK</text>
</g>
<!-- Swit.SwitSDK.Logger -->
<g id="node3" class="node">
<title>Swit.SwitSDK.Logger</title>
<polygon fill="none" stroke="black" points="291.75,-396 152.75,-396 152.75,-360 291.75,-360 291.75,-396"/>
<text xml:space="preserve" text-anchor="start" x="160.75" y="-372.95" font-family="Times New Roman,serif" font-size="14.00">Swit.SwitSDK.Logger</text>
</g>
<!-- Swit.SwitSDK&#45;&gt;Swit.SwitSDK.Logger -->
<g id="edge1" class="edge">
<title>Swit.SwitSDK&#45;&gt;Swit.SwitSDK.Logger</title>
<path fill="none" stroke="black" d="M288.5,-324.3C277.71,-332.89 264.5,-343.39 252.72,-352.76"/>
<polygon fill="black" stroke="black" points="245.01,-358.89 250.04,-349.15 247.97,-356.54 252.84,-352.67 252.84,-352.67 252.84,-352.67 247.97,-356.54 255.64,-356.19 245.01,-358.89"/>
</g>
<!-- Swit.SwitSDK.config -->
<g id="node7" class="node">
<title>Swit.SwitSDK.config</title>
<polygon fill="none" stroke="black" points="134.5,-396 0,-396 0,-360 134.5,-360 134.5,-396"/>
<text xml:space="preserve" text-anchor="start" x="8" y="-372.95" font-family="Times New Roman,serif" font-size="14.00">Swit.SwitSDK.config</text>
</g>
<!-- Swit.SwitSDK&#45;&gt;Swit.SwitSDK.config -->
<g id="edge2" class="edge">
<title>Swit.SwitSDK&#45;&gt;Swit.SwitSDK.config</title>
<path fill="none" stroke="black" d="M261.66,-321C226.39,-331.16 178.11,-345.06 138.49,-356.48"/>
<polygon fill="black" stroke="black" points="129,-359.21 137.36,-352.12 132.63,-358.17 138.61,-356.44 138.61,-356.44 138.61,-356.44 132.63,-358.17 139.85,-360.77 129,-359.21"/>
</g>
<!-- Swit.SwitSDK.path_manager -->
<g id="node8" class="node">
<title>Swit.SwitSDK.path_manager</title>
<polygon fill="none" stroke="black" points="486.88,-396 309.62,-396 309.62,-360 486.88,-360 486.88,-396"/>
<text xml:space="preserve" text-anchor="start" x="317.62" y="-372.95" font-family="Times New Roman,serif" font-size="14.00">Swit.SwitSDK.path_manager</text>
</g>
<!-- Swit.SwitSDK&#45;&gt;Swit.SwitSDK.path_manager -->
<g id="edge3" class="edge">
<title>Swit.SwitSDK&#45;&gt;Swit.SwitSDK.path_manager</title>
<path fill="none" stroke="black" d="M332,-324.3C342.79,-332.89 356,-343.39 367.78,-352.76"/>
<polygon fill="black" stroke="black" points="375.49,-358.89 364.86,-356.19 372.53,-356.54 367.66,-352.67 367.66,-352.67 367.66,-352.67 372.53,-356.54 370.46,-349.15 375.49,-358.89"/>
</g>
<!-- Swit.SwitSDK.utils -->
<g id="node9" class="node">
<title>Swit.SwitSDK.utils</title>
<polygon fill="none" stroke="black" points="627.88,-396 504.62,-396 504.62,-360 627.88,-360 627.88,-396"/>
<text xml:space="preserve" text-anchor="start" x="512.62" y="-372.95" font-family="Times New Roman,serif" font-size="14.00">Swit.SwitSDK.utils</text>
</g>
<!-- Swit.SwitSDK&#45;&gt;Swit.SwitSDK.utils -->
<g id="edge4" class="edge">
<title>Swit.SwitSDK&#45;&gt;Swit.SwitSDK.utils</title>
<path fill="none" stroke="black" d="M358.7,-320.25C396.79,-330.66 450.44,-345.33 493.65,-357.15"/>
<polygon fill="black" stroke="black" points="503.22,-359.77 492.39,-361.47 499.57,-358.77 493.58,-357.13 493.58,-357.13 493.58,-357.13 499.57,-358.77 494.76,-352.79 503.22,-359.77"/>
</g>
<!-- Swit.SwitSDK.api -->
<g id="node4" class="node">
<title>Swit.SwitSDK.api</title>
<polygon fill="none" stroke="black" points="2318.5,-396 2202,-396 2202,-360 2318.5,-360 2318.5,-396"/>
<text xml:space="preserve" text-anchor="start" x="2210" y="-372.95" font-family="Times New Roman,serif" font-size="14.00">Swit.SwitSDK.api</text>
</g>
<!-- Swit.SwitSDK.api.app -->
<g id="node5" class="node">
<title>Swit.SwitSDK.api.app</title>
<polygon fill="none" stroke="black" points="2330.12,-468 2190.38,-468 2190.38,-432 2330.12,-432 2330.12,-468"/>
<text xml:space="preserve" text-anchor="start" x="2198.38" y="-444.95" font-family="Times New Roman,serif" font-size="14.00">Swit.SwitSDK.api.app</text>
</g>
<!-- Swit.SwitSDK.api&#45;&gt;Swit.SwitSDK.api.app -->
<g id="edge5" class="edge">
<title>Swit.SwitSDK.api&#45;&gt;Swit.SwitSDK.api.app</title>
<path fill="none" stroke="black" d="M2260.25,-396.3C2260.25,-403.68 2260.25,-412.48 2260.25,-420.75"/>
<polygon fill="black" stroke="black" points="2260.25,-430.68 2255.75,-420.68 2260.25,-426.9 2260.25,-420.68 2260.25,-420.68 2260.25,-420.68 2260.25,-426.9 2264.75,-420.68 2260.25,-430.68"/>
</g>
<!-- Swit.SwitSDK.api.plugin -->
<g id="node6" class="node">
<title>Swit.SwitSDK.api.plugin</title>
<polygon fill="none" stroke="black" points="2624.62,-36 2469.88,-36 2469.88,0 2624.62,0 2624.62,-36"/>
<text xml:space="preserve" text-anchor="start" x="2477.88" y="-12.95" font-family="Times New Roman,serif" font-size="14.00">Swit.SwitSDK.api.plugin</text>
</g>
<!-- Swit.src.handler.file.extract -->
<g id="node19" class="node">
<title>Swit.src.handler.file.extract</title>
<polygon fill="none" stroke="black" points="739.25,-468 573.25,-468 573.25,-432 739.25,-432 739.25,-468"/>
<text xml:space="preserve" text-anchor="start" x="581.25" y="-444.95" font-family="Times New Roman,serif" font-size="14.00">Swit.src.handler.file.extract</text>
</g>
<!-- Swit.SwitSDK.config&#45;&gt;Swit.src.handler.file.extract -->
<g id="edge6" class="edge">
<title>Swit.SwitSDK.config&#45;&gt;Swit.src.handler.file.extract</title>
<path fill="none" stroke="black" d="M134.72,-394.52C137.59,-395.05 140.45,-395.54 143.25,-396 288.41,-419.65 458.5,-434.77 561.76,-442.57"/>
<polygon fill="black" stroke="black" points="571.56,-443.3 561.25,-447.05 567.79,-443.02 561.59,-442.56 561.59,-442.56 561.59,-442.56 567.79,-443.02 561.93,-438.07 571.56,-443.3"/>
</g>
<!-- Swit.src -->
<g id="node10" class="node">
<title>Swit.src</title>
<polygon fill="none" stroke="black" points="2703.38,-36 2643.12,-36 2643.12,0 2703.38,0 2703.38,-36"/>
<text xml:space="preserve" text-anchor="start" x="2651.12" y="-12.95" font-family="Times New Roman,serif" font-size="14.00">Swit.src</text>
</g>
<!-- Swit.src.core -->
<g id="node11" class="node">
<title>Swit.src.core</title>
<polygon fill="none" stroke="black" points="2808.88,-36 2721.62,-36 2721.62,0 2808.88,0 2808.88,-36"/>
<text xml:space="preserve" text-anchor="start" x="2729.62" y="-12.95" font-family="Times New Roman,serif" font-size="14.00">Swit.src.core</text>
</g>
<!-- Swit.src.core.main -->
<g id="node12" class="node">
<title>Swit.src.core.main</title>
<polygon fill="none" stroke="black" points="2451.62,-36 2332.88,-36 2332.88,0 2451.62,0 2451.62,-36"/>
<text xml:space="preserve" text-anchor="start" x="2340.88" y="-12.95" font-family="Times New Roman,serif" font-size="14.00">Swit.src.core.main</text>
</g>
<!-- Swit.src.handler.file.path_manager -->
<g id="node20" class="node">
<title>Swit.src.handler.file.path_manager</title>
<polygon fill="none" stroke="black" points="1607.5,-468 1401,-468 1401,-432 1607.5,-432 1607.5,-468"/>
<text xml:space="preserve" text-anchor="start" x="1409" y="-444.95" font-family="Times New Roman,serif" font-size="14.00">Swit.src.handler.file.path_manager</text>
</g>
<!-- Swit.src.core.main&#45;&gt;Swit.src.handler.file.path_manager -->
<g id="edge7" class="edge">
<title>Swit.src.core.main&#45;&gt;Swit.src.handler.file.path_manager</title>
<path fill="none" stroke="black" d="M2340.45,-36.48C2250.34,-67.63 2074.25,-132.2 2074.25,-161 2074.25,-161 2074.25,-161 2074.25,-307 2074.25,-361.09 2039.61,-371.78 1991.25,-396 1928.09,-427.63 1741.85,-440.53 1618.85,-445.69"/>
<polygon fill="black" stroke="black" points="1609.11,-446.08 1618.92,-441.18 1612.89,-445.93 1619.1,-445.68 1619.1,-445.68 1619.1,-445.68 1612.89,-445.93 1619.28,-450.17 1609.11,-446.08"/>
</g>
<!-- Swit.src.handler.token_valid_check -->
<g id="node22" class="node">
<title>Swit.src.handler.token_valid_check</title>
<polygon fill="none" stroke="black" points="2630,-108 2420.5,-108 2420.5,-72 2630,-72 2630,-108"/>
<text xml:space="preserve" text-anchor="start" x="2428.5" y="-84.95" font-family="Times New Roman,serif" font-size="14.00">Swit.src.handler.token_valid_check</text>
</g>
<!-- Swit.src.core.main&#45;&gt;Swit.src.handler.token_valid_check -->
<g id="edge8" class="edge">
<title>Swit.src.core.main&#45;&gt;Swit.src.handler.token_valid_check</title>
<path fill="none" stroke="black" d="M2425.47,-36.48C2442.82,-45.61 2464.24,-56.89 2482.78,-66.65"/>
<polygon fill="black" stroke="black" points="2491.38,-71.17 2480.43,-70.5 2488.03,-69.41 2482.53,-66.51 2482.53,-66.51 2482.53,-66.51 2488.03,-69.41 2484.62,-62.53 2491.38,-71.17"/>
</g>
<!-- Swit.src.loader.handler.download_package -->
<g id="node26" class="node">
<title>Swit.src.loader.handler.download_package</title>
<polygon fill="none" stroke="black" points="2388.5,-180 2140,-180 2140,-144 2388.5,-144 2388.5,-180"/>
<text xml:space="preserve" text-anchor="start" x="2148" y="-156.95" font-family="Times New Roman,serif" font-size="14.00">Swit.src.loader.handler.download_package</text>
</g>
<!-- Swit.src.core.main&#45;&gt;Swit.src.loader.handler.download_package -->
<g id="edge9" class="edge">
<title>Swit.src.core.main&#45;&gt;Swit.src.loader.handler.download_package</title>
<path fill="none" stroke="black" d="M2376.55,-36.41C2354.17,-61.24 2312.94,-106.99 2287.14,-135.6"/>
<polygon fill="black" stroke="black" points="2280.49,-142.98 2283.84,-132.54 2283.02,-140.18 2287.19,-135.56 2287.19,-135.56 2287.19,-135.56 2283.02,-140.18 2290.53,-138.57 2280.49,-142.98"/>
</g>
<!-- Swit.src.loader.loader -->
<g id="node32" class="node">
<title>Swit.src.loader.loader</title>
<polygon fill="none" stroke="black" points="1704.5,-108 1570,-108 1570,-72 1704.5,-72 1704.5,-108"/>
<text xml:space="preserve" text-anchor="start" x="1578" y="-84.95" font-family="Times New Roman,serif" font-size="14.00">Swit.src.loader.loader</text>
</g>
<!-- Swit.src.core.main&#45;&gt;Swit.src.loader.loader -->
<g id="edge10" class="edge">
<title>Swit.src.core.main&#45;&gt;Swit.src.loader.loader</title>
<path fill="none" stroke="black" d="M2332.66,-34.5C2329.83,-35.05 2327.01,-35.55 2324.25,-36 2105.68,-71.49 1844.01,-83.37 1715.84,-87.22"/>
<polygon fill="black" stroke="black" points="1706.2,-87.5 1716.06,-82.72 1709.98,-87.39 1716.19,-87.21 1716.19,-87.21 1716.19,-87.21 1709.98,-87.39 1716.33,-91.71 1706.2,-87.5"/>
</g>
<!-- Swit.src.local -->
<g id="node38" class="node">
<title>Swit.src.local</title>
<polygon fill="none" stroke="black" points="2776.38,-108 2686.12,-108 2686.12,-72 2776.38,-72 2776.38,-108"/>
<text xml:space="preserve" text-anchor="start" x="2694.12" y="-84.95" font-family="Times New Roman,serif" font-size="14.00">Swit.src.local</text>
</g>
<!-- Swit.src.core.main&#45;&gt;Swit.src.local -->
<g id="edge11" class="edge">
<title>Swit.src.core.main&#45;&gt;Swit.src.local</title>
<path fill="none" stroke="black" d="M2452.03,-34.01C2455.14,-34.7 2458.23,-35.37 2461.25,-36 2554.39,-55.39 2579.51,-50.8 2672.25,-72 2673.2,-72.22 2674.17,-72.44 2675.13,-72.67"/>
<polygon fill="black" stroke="black" points="2684.46,-75.02 2673.67,-76.94 2680.79,-74.1 2674.76,-72.58 2674.76,-72.58 2674.76,-72.58 2680.79,-74.1 2675.86,-68.21 2684.46,-75.02"/>
</g>
<!-- Swit.src.local._add_intents -->
<g id="node39" class="node">
<title>Swit.src.local._add_intents</title>
<polygon fill="none" stroke="black" points="2776.75,-180 2613.75,-180 2613.75,-144 2776.75,-144 2776.75,-180"/>
<text xml:space="preserve" text-anchor="start" x="2621.75" y="-156.95" font-family="Times New Roman,serif" font-size="14.00">Swit.src.local._add_intents</text>
</g>
<!-- Swit.src.core.main&#45;&gt;Swit.src.local._add_intents -->
<g id="edge12" class="edge">
<title>Swit.src.core.main&#45;&gt;Swit.src.local._add_intents</title>
<path fill="none" stroke="black" d="M2452.05,-33.9C2455.16,-34.62 2458.24,-35.33 2461.25,-36 2540.01,-53.66 2572.83,-26.14 2639.25,-72 2660.9,-86.95 2675.92,-113.27 2684.91,-133.42"/>
<polygon fill="black" stroke="black" points="2688.71,-142.46 2680.69,-134.99 2687.25,-138.98 2684.84,-133.24 2684.84,-133.24 2684.84,-133.24 2687.25,-138.98 2688.99,-131.5 2688.71,-142.46"/>
</g>
<!-- Swit.src.utils.logger -->
<g id="node44" class="node">
<title>Swit.src.utils.logger</title>
<polygon fill="none" stroke="black" points="2250,-324 2124.5,-324 2124.5,-288 2250,-288 2250,-324"/>
<text xml:space="preserve" text-anchor="start" x="2132.5" y="-300.95" font-family="Times New Roman,serif" font-size="14.00">Swit.src.utils.logger</text>
</g>
<!-- Swit.src.core.main&#45;&gt;Swit.src.utils.logger -->
<g id="edge13" class="edge">
<title>Swit.src.core.main&#45;&gt;Swit.src.utils.logger</title>
<path fill="none" stroke="black" d="M2397.74,-36.07C2406.56,-66.72 2420.65,-132.3 2397.25,-180 2370.95,-233.61 2310.1,-266.06 2260.64,-284.4"/>
<polygon fill="black" stroke="black" points="2251.42,-287.7 2259.32,-280.09 2254.98,-286.42 2260.83,-284.33 2260.83,-284.33 2260.83,-284.33 2254.98,-286.42 2262.35,-288.57 2251.42,-287.7"/>
</g>
<!-- Swit.src.core.terminal -->
<g id="node13" class="node">
<title>Swit.src.core.terminal</title>
<polygon fill="none" stroke="black" points="1981.62,-180 1844.88,-180 1844.88,-144 1981.62,-144 1981.62,-180"/>
<text xml:space="preserve" text-anchor="start" x="1852.88" y="-156.95" font-family="Times New Roman,serif" font-size="14.00">Swit.src.core.terminal</text>
</g>
<!-- Swit.src.core.terminal.print_plugin_dir_tree -->
<g id="node14" class="node">
<title>Swit.src.core.terminal.print_plugin_dir_tree</title>
<polygon fill="none" stroke="black" points="2046.25,-252 1790.25,-252 1790.25,-216 2046.25,-216 2046.25,-252"/>
<text xml:space="preserve" text-anchor="start" x="1798.25" y="-228.95" font-family="Times New Roman,serif" font-size="14.00">Swit.src.core.terminal.print_plugin_dir_tree</text>
</g>
<!-- Swit.src.core.terminal&#45;&gt;Swit.src.core.terminal.print_plugin_dir_tree -->
<g id="edge14" class="edge">
<title>Swit.src.core.terminal&#45;&gt;Swit.src.core.terminal.print_plugin_dir_tree</title>
<path fill="none" stroke="black" d="M1914.49,-180.3C1915.01,-187.68 1915.64,-196.48 1916.23,-204.75"/>
<polygon fill="black" stroke="black" points="1916.94,-214.68 1911.74,-205.03 1916.67,-210.91 1916.23,-204.71 1916.23,-204.71 1916.23,-204.71 1916.67,-210.91 1920.72,-204.39 1916.94,-214.68"/>
</g>
<!-- Swit.src.core.terminal.print_plugin_dir_tree&#45;&gt;Swit.src.utils.logger -->
<g id="edge15" class="edge">
<title>Swit.src.core.terminal.print_plugin_dir_tree&#45;&gt;Swit.src.utils.logger</title>
<path fill="none" stroke="black" d="M1985.44,-252.48C2024.35,-262.61 2073.4,-275.37 2113.39,-285.78"/>
<polygon fill="black" stroke="black" points="2122.97,-288.27 2112.16,-290.11 2119.31,-287.32 2113.29,-285.75 2113.29,-285.75 2113.29,-285.75 2119.31,-287.32 2114.43,-281.4 2122.97,-288.27"/>
</g>
<!-- Swit.src.handler -->
<g id="node15" class="node">
<title>Swit.src.handler</title>
<polygon fill="none" stroke="black" points="2931.5,-36 2827,-36 2827,0 2931.5,0 2931.5,-36"/>
<text xml:space="preserve" text-anchor="start" x="2835" y="-12.95" font-family="Times New Roman,serif" font-size="14.00">Swit.src.handler</text>
</g>
<!-- Swit.src.handler.cache -->
<g id="node16" class="node">
<title>Swit.src.handler.cache</title>
<polygon fill="none" stroke="black" points="2278.38,-252 2140.12,-252 2140.12,-216 2278.38,-216 2278.38,-252"/>
<text xml:space="preserve" text-anchor="start" x="2148.12" y="-228.95" font-family="Times New Roman,serif" font-size="14.00">Swit.src.handler.cache</text>
</g>
<!-- Swit.src.handler.cache&#45;&gt;Swit.src.utils.logger -->
<g id="edge16" class="edge">
<title>Swit.src.handler.cache&#45;&gt;Swit.src.utils.logger</title>
<path fill="none" stroke="black" d="M2203.81,-252.3C2201.44,-259.85 2198.6,-268.88 2195.95,-277.32"/>
<polygon fill="black" stroke="black" points="2192.99,-286.73 2191.7,-275.84 2194.12,-283.13 2195.99,-277.19 2195.99,-277.19 2195.99,-277.19 2194.12,-283.13 2200.28,-278.54 2192.99,-286.73"/>
</g>
<!-- Swit.src.handler.file -->
<g id="node17" class="node">
<title>Swit.src.handler.file</title>
<polygon fill="none" stroke="black" points="3075,-36 2949.5,-36 2949.5,0 3075,0 3075,-36"/>
<text xml:space="preserve" text-anchor="start" x="2957.5" y="-12.95" font-family="Times New Roman,serif" font-size="14.00">Swit.src.handler.file</text>
</g>
<!-- Swit.src.handler.file.config -->
<g id="node18" class="node">
<title>Swit.src.handler.file.config</title>
<polygon fill="none" stroke="black" points="1696.12,-252 1532.38,-252 1532.38,-216 1696.12,-216 1696.12,-252"/>
<text xml:space="preserve" text-anchor="start" x="1540.38" y="-228.95" font-family="Times New Roman,serif" font-size="14.00">Swit.src.handler.file.config</text>
</g>
<!-- Swit.src.handler.inject_params -->
<g id="node21" class="node">
<title>Swit.src.handler.inject_params</title>
<polygon fill="none" stroke="black" points="2452.25,-324 2268.25,-324 2268.25,-288 2452.25,-288 2452.25,-324"/>
<text xml:space="preserve" text-anchor="start" x="2276.25" y="-300.95" font-family="Times New Roman,serif" font-size="14.00">Swit.src.handler.inject_params</text>
</g>
<!-- Swit.src.handler.inject_params&#45;&gt;Swit.SwitSDK.api -->
<g id="edge17" class="edge">
<title>Swit.src.handler.inject_params&#45;&gt;Swit.SwitSDK.api</title>
<path fill="none" stroke="black" d="M2335.27,-324.48C2322.77,-333.24 2307.46,-343.96 2293.93,-353.42"/>
<polygon fill="black" stroke="black" points="2285.91,-359.04 2291.52,-349.62 2289,-356.87 2294.1,-353.31 2294.1,-353.31 2294.1,-353.31 2289,-356.87 2296.68,-356.99 2285.91,-359.04"/>
</g>
<!-- Swit.src.handler.token_valid_check&#45;&gt;Swit.src.utils.logger -->
<g id="edge18" class="edge">
<title>Swit.src.handler.token_valid_check&#45;&gt;Swit.src.utils.logger</title>
<path fill="none" stroke="black" d="M2520.23,-108.3C2509.58,-141.76 2481.4,-215.28 2430.25,-252 2369.87,-295.35 2337.87,-273.2 2261.07,-287.79"/>
<polygon fill="black" stroke="black" points="2251.64,-289.74 2260.52,-283.31 2255.34,-288.97 2261.43,-287.71 2261.43,-287.71 2261.43,-287.71 2255.34,-288.97 2262.34,-292.12 2251.64,-289.74"/>
</g>
<!-- Swit.src.loader -->
<g id="node23" class="node">
<title>Swit.src.loader</title>
<polygon fill="none" stroke="black" points="3191.12,-36 3093.38,-36 3093.38,0 3191.12,0 3191.12,-36"/>
<text xml:space="preserve" text-anchor="start" x="3101.38" y="-12.95" font-family="Times New Roman,serif" font-size="14.00">Swit.src.loader</text>
</g>
<!-- Swit.src.loader.handler -->
<g id="node24" class="node">
<title>Swit.src.loader.handler</title>
<polygon fill="none" stroke="black" points="3350.88,-36 3209.62,-36 3209.62,0 3350.88,0 3350.88,-36"/>
<text xml:space="preserve" text-anchor="start" x="3217.62" y="-12.95" font-family="Times New Roman,serif" font-size="14.00">Swit.src.loader.handler</text>
</g>
<!-- Swit.src.loader.handler.cache -->
<g id="node25" class="node">
<title>Swit.src.loader.handler.cache</title>
<polygon fill="none" stroke="black" points="3543.75,-36 3368.75,-36 3368.75,0 3543.75,0 3543.75,-36"/>
<text xml:space="preserve" text-anchor="start" x="3376.75" y="-12.95" font-family="Times New Roman,serif" font-size="14.00">Swit.src.loader.handler.cache</text>
</g>
<!-- Swit.src.loader.handler.download_package&#45;&gt;Swit.src.handler.cache -->
<g id="edge19" class="edge">
<title>Swit.src.loader.handler.download_package&#45;&gt;Swit.src.handler.cache</title>
<path fill="none" stroke="black" d="M2250.65,-180.3C2244.26,-188.44 2236.51,-198.31 2229.44,-207.3"/>
<polygon fill="black" stroke="black" points="2223.44,-214.94 2226.08,-204.29 2225.78,-211.96 2229.62,-207.07 2229.62,-207.07 2229.62,-207.07 2225.78,-211.96 2233.16,-209.85 2223.44,-214.94"/>
</g>
<!-- Swit.src.loader.handler.download_package&#45;&gt;Swit.src.utils.logger -->
<g id="edge20" class="edge">
<title>Swit.src.loader.handler.download_package&#45;&gt;Swit.src.utils.logger</title>
<path fill="none" stroke="black" d="M2276.05,-180.19C2287.35,-198.99 2300.83,-229.44 2287.25,-252 2279.46,-264.94 2267.34,-274.88 2254.19,-282.47"/>
<polygon fill="black" stroke="black" points="2245.55,-287.02 2252.3,-278.37 2248.9,-285.25 2254.4,-282.36 2254.4,-282.36 2254.4,-282.36 2248.9,-285.25 2256.5,-286.34 2245.55,-287.02"/>
</g>
<!-- Swit.src.loader.handler.launch_multi_thread -->
<g id="node27" class="node">
<title>Swit.src.loader.handler.launch_multi_thread</title>
<polygon fill="none" stroke="black" points="1609.62,-180 1352.88,-180 1352.88,-144 1609.62,-144 1609.62,-180"/>
<text xml:space="preserve" text-anchor="start" x="1360.88" y="-156.95" font-family="Times New Roman,serif" font-size="14.00">Swit.src.loader.handler.launch_multi_thread</text>
</g>
<!-- Swit.src.loader.handler.launch_multi_thread&#45;&gt;Swit.src.handler.file.config -->
<g id="edge21" class="edge">
<title>Swit.src.loader.handler.launch_multi_thread&#45;&gt;Swit.src.handler.file.config</title>
<path fill="none" stroke="black" d="M1514.47,-180.48C1531.82,-189.61 1553.24,-200.89 1571.78,-210.65"/>
<polygon fill="black" stroke="black" points="1580.38,-215.17 1569.43,-214.5 1577.03,-213.41 1571.53,-210.51 1571.53,-210.51 1571.53,-210.51 1577.03,-213.41 1573.62,-206.53 1580.38,-215.17"/>
</g>
<!-- Swit.src.loader.handler.launch_multi_thread&#45;&gt;Swit.src.handler.file.path_manager -->
<g id="edge22" class="edge">
<title>Swit.src.loader.handler.launch_multi_thread&#45;&gt;Swit.src.handler.file.path_manager</title>
<path fill="none" stroke="black" d="M1386.87,-180.47C1350.1,-189.36 1314.14,-201.4 1303.25,-216 1293.69,-228.83 1297.05,-237.25 1303.25,-252 1336.25,-330.55 1417.55,-393.49 1466.04,-425.65"/>
<polygon fill="black" stroke="black" points="1474.26,-431 1463.42,-429.31 1471.09,-428.93 1465.88,-425.54 1465.88,-425.54 1465.88,-425.54 1471.09,-428.93 1468.33,-421.77 1474.26,-431"/>
</g>
<!-- Swit.src.loader.load.load_mapping -->
<g id="node30" class="node">
<title>Swit.src.loader.load.load_mapping</title>
<polygon fill="none" stroke="black" points="1065.12,-396 859.38,-396 859.38,-360 1065.12,-360 1065.12,-396"/>
<text xml:space="preserve" text-anchor="start" x="867.38" y="-372.95" font-family="Times New Roman,serif" font-size="14.00">Swit.src.loader.load.load_mapping</text>
</g>
<!-- Swit.src.loader.handler.launch_multi_thread&#45;&gt;Swit.src.loader.load.load_mapping -->
<g id="edge23" class="edge">
<title>Swit.src.loader.handler.launch_multi_thread&#45;&gt;Swit.src.loader.load.load_mapping</title>
<path fill="none" stroke="black" d="M1352.62,-178.9C1228.13,-194.32 1058.02,-215.46 1057.25,-216 1012.88,-246.9 1029.8,-278.09 1001.25,-324 995.64,-333.02 988.96,-342.48 982.72,-350.87"/>
<polygon fill="black" stroke="black" points="976.69,-358.84 979.14,-348.15 978.98,-355.83 982.73,-350.87 982.73,-350.87 982.73,-350.87 978.98,-355.83 986.32,-353.58 976.69,-358.84"/>
</g>
<!-- Swit.src.loader.load.load_object -->
<g id="node31" class="node">
<title>Swit.src.loader.load.load_object</title>
<polygon fill="none" stroke="black" points="1256.62,-252 1065.88,-252 1065.88,-216 1256.62,-216 1256.62,-252"/>
<text xml:space="preserve" text-anchor="start" x="1073.88" y="-228.95" font-family="Times New Roman,serif" font-size="14.00">Swit.src.loader.load.load_object</text>
</g>
<!-- Swit.src.loader.handler.launch_multi_thread&#45;&gt;Swit.src.loader.load.load_object -->
<g id="edge24" class="edge">
<title>Swit.src.loader.handler.launch_multi_thread&#45;&gt;Swit.src.loader.load.load_object</title>
<path fill="none" stroke="black" d="M1401.33,-180.48C1355.9,-190.42 1298.87,-202.9 1251.8,-213.19"/>
<polygon fill="black" stroke="black" points="1242.18,-215.3 1250.98,-208.76 1245.87,-214.49 1251.95,-213.16 1251.95,-213.16 1251.95,-213.16 1245.87,-214.49 1252.91,-217.56 1242.18,-215.3"/>
</g>
<!-- Swit.src.loader.utils.check_python_version -->
<g id="node35" class="node">
<title>Swit.src.loader.utils.check_python_version</title>
<polygon fill="none" stroke="black" points="1010.25,-252 760.25,-252 760.25,-216 1010.25,-216 1010.25,-252"/>
<text xml:space="preserve" text-anchor="start" x="768.25" y="-228.95" font-family="Times New Roman,serif" font-size="14.00">Swit.src.loader.utils.check_python_version</text>
</g>
<!-- Swit.src.loader.handler.launch_multi_thread&#45;&gt;Swit.src.loader.utils.check_python_version -->
<g id="edge25" class="edge">
<title>Swit.src.loader.handler.launch_multi_thread&#45;&gt;Swit.src.loader.utils.check_python_version</title>
<path fill="none" stroke="black" d="M1352.71,-178.88C1349.52,-179.26 1346.37,-179.63 1343.25,-180 1201.56,-196.72 1165.95,-199.34 1024.25,-216 1023.41,-216.1 1022.57,-216.2 1021.73,-216.3"/>
<polygon fill="black" stroke="black" points="1011.85,-217.47 1021.25,-211.82 1015.61,-217.02 1021.78,-216.29 1021.78,-216.29 1021.78,-216.29 1015.61,-217.02 1022.31,-220.76 1011.85,-217.47"/>
</g>
<!-- Swit.src.utils.async_runner -->
<g id="node41" class="node">
<title>Swit.src.utils.async_runner</title>
<polygon fill="none" stroke="black" points="1476.12,-252 1312.38,-252 1312.38,-216 1476.12,-216 1476.12,-252"/>
<text xml:space="preserve" text-anchor="start" x="1320.38" y="-228.95" font-family="Times New Roman,serif" font-size="14.00">Swit.src.utils.async_runner</text>
</g>
<!-- Swit.src.loader.handler.launch_multi_thread&#45;&gt;Swit.src.utils.async_runner -->
<g id="edge26" class="edge">
<title>Swit.src.loader.handler.launch_multi_thread&#45;&gt;Swit.src.utils.async_runner</title>
<path fill="none" stroke="black" d="M1459.74,-180.3C1449.08,-188.89 1436.02,-199.39 1424.37,-208.76"/>
<polygon fill="black" stroke="black" points="1416.76,-214.89 1421.73,-205.11 1419.71,-212.52 1424.55,-208.62 1424.55,-208.62 1424.55,-208.62 1419.71,-212.52 1427.37,-212.13 1416.76,-214.89"/>
</g>
<!-- Swit.src.loader.handler.launch_multi_thread&#45;&gt;Swit.src.utils.logger -->
<g id="edge27" class="edge">
<title>Swit.src.loader.handler.launch_multi_thread&#45;&gt;Swit.src.utils.logger</title>
<path fill="none" stroke="black" d="M1484.11,-180.43C1488.54,-201.27 1499.2,-235.41 1523.25,-252 1565.45,-281.12 1932.15,-283.87 1983.25,-288 2026.29,-291.48 2074.43,-295.48 2113.13,-298.73"/>
<polygon fill="black" stroke="black" points="2123.09,-299.57 2112.75,-303.22 2119.32,-299.25 2113.13,-298.73 2113.13,-298.73 2113.13,-298.73 2119.32,-299.25 2113.5,-294.25 2123.09,-299.57"/>
</g>
<!-- Swit.src.loader.load -->
<g id="node28" class="node">
<title>Swit.src.loader.load</title>
<polygon fill="none" stroke="black" points="3686.25,-36 3562.25,-36 3562.25,0 3686.25,0 3686.25,-36"/>
<text xml:space="preserve" text-anchor="start" x="3570.25" y="-12.95" font-family="Times New Roman,serif" font-size="14.00">Swit.src.loader.load</text>
</g>
<!-- Swit.src.loader.load.load_main_event -->
<g id="node29" class="node">
<title>Swit.src.loader.load.load_main_event</title>
<polygon fill="none" stroke="black" points="1974,-324 1752.5,-324 1752.5,-288 1974,-288 1974,-324"/>
<text xml:space="preserve" text-anchor="start" x="1760.5" y="-300.95" font-family="Times New Roman,serif" font-size="14.00">Swit.src.loader.load.load_main_event</text>
</g>
<!-- Swit.src.loader.load.load_main_event&#45;&gt;Swit.SwitSDK.api -->
<g id="edge28" class="edge">
<title>Swit.src.loader.load.load_main_event&#45;&gt;Swit.SwitSDK.api</title>
<path fill="none" stroke="black" d="M1962.41,-324.48C2033.47,-337.01 2127.42,-353.58 2190.64,-364.73"/>
<polygon fill="black" stroke="black" points="2200.48,-366.46 2189.86,-369.16 2196.76,-365.81 2190.64,-364.73 2190.64,-364.73 2190.64,-364.73 2196.76,-365.81 2191.42,-360.29 2200.48,-366.46"/>
</g>
<!-- Swit.src.loader.load.load_main_event&#45;&gt;Swit.src.handler.file.path_manager -->
<g id="edge29" class="edge">
<title>Swit.src.loader.load.load_main_event&#45;&gt;Swit.src.handler.file.path_manager</title>
<path fill="none" stroke="black" d="M1928.93,-324.44C1946.31,-332.37 1963.04,-343.76 1973.25,-360 1981.76,-373.55 1983.91,-384.07 1973.25,-396 1950,-422.02 1750.05,-436.88 1618.84,-443.91"/>
<polygon fill="black" stroke="black" points="1609.16,-444.42 1618.91,-439.4 1612.94,-444.22 1619.15,-443.89 1619.15,-443.89 1619.15,-443.89 1612.94,-444.22 1619.38,-448.39 1609.16,-444.42"/>
</g>
<!-- Swit.src.loader.load.load_main_event&#45;&gt;Swit.src.loader.load.load_mapping -->
<g id="edge30" class="edge">
<title>Swit.src.loader.load.load_main_event&#45;&gt;Swit.src.loader.load.load_mapping</title>
<path fill="none" stroke="black" d="M1752.32,-315.62C1580.21,-328.99 1250.59,-354.6 1076.49,-368.12"/>
<polygon fill="black" stroke="black" points="1066.72,-368.88 1076.34,-363.62 1070.49,-368.59 1076.69,-368.11 1076.69,-368.11 1076.69,-368.11 1070.49,-368.59 1077.03,-372.6 1066.72,-368.88"/>
</g>
<!-- Swit.src.loader.utils.import_module -->
<g id="node37" class="node">
<title>Swit.src.loader.utils.import_module</title>
<polygon fill="none" stroke="black" points="1964.5,-396 1752,-396 1752,-360 1964.5,-360 1964.5,-396"/>
<text xml:space="preserve" text-anchor="start" x="1760" y="-372.95" font-family="Times New Roman,serif" font-size="14.00">Swit.src.loader.utils.import_module</text>
</g>
<!-- Swit.src.loader.load.load_main_event&#45;&gt;Swit.src.loader.utils.import_module -->
<g id="edge31" class="edge">
<title>Swit.src.loader.load.load_main_event&#45;&gt;Swit.src.loader.utils.import_module</title>
<path fill="none" stroke="black" d="M1862.01,-324.3C1861.49,-331.68 1860.86,-340.48 1860.27,-348.75"/>
<polygon fill="black" stroke="black" points="1859.56,-358.68 1855.78,-348.39 1859.83,-354.91 1860.27,-348.71 1860.27,-348.71 1860.27,-348.71 1859.83,-354.91 1864.76,-349.03 1859.56,-358.68"/>
</g>
<!-- Swit.src.loader.load.load_mapping&#45;&gt;Swit.src.handler.file.extract -->
<g id="edge32" class="edge">
<title>Swit.src.loader.load.load_mapping&#45;&gt;Swit.src.handler.file.extract</title>
<path fill="none" stroke="black" d="M885.82,-396.48C842.57,-406.38 788.31,-418.79 743.4,-429.06"/>
<polygon fill="black" stroke="black" points="733.69,-431.29 742.43,-424.67 737.37,-430.44 743.43,-429.06 743.43,-429.06 743.43,-429.06 737.37,-430.44 744.44,-433.44 733.69,-431.29"/>
</g>
<!-- Swit.src.loader.load.load_mapping&#45;&gt;Swit.src.handler.file.path_manager -->
<g id="edge33" class="edge">
<title>Swit.src.loader.load.load_mapping&#45;&gt;Swit.src.handler.file.path_manager</title>
<path fill="none" stroke="black" d="M1065.47,-392.33C1158.19,-404.31 1294.1,-421.86 1390.04,-434.25"/>
<polygon fill="black" stroke="black" points="1399.74,-435.5 1389.25,-438.68 1395.99,-435.02 1389.83,-434.22 1389.83,-434.22 1389.83,-434.22 1395.99,-435.02 1390.4,-429.76 1399.74,-435.5"/>
</g>
<!-- Swit.src.loader.load.load_object&#45;&gt;Swit.src.handler.file.path_manager -->
<g id="edge34" class="edge">
<title>Swit.src.loader.load.load_object&#45;&gt;Swit.src.handler.file.path_manager</title>
<path fill="none" stroke="black" d="M1167.82,-252.26C1181.46,-285.65 1216.17,-359.07 1270.25,-396 1305.15,-419.83 1349.13,-433.1 1389.52,-440.43"/>
<polygon fill="black" stroke="black" points="1399.33,-442.1 1388.72,-444.86 1395.6,-441.46 1389.47,-440.42 1389.47,-440.42 1389.47,-440.42 1395.6,-441.46 1390.23,-435.99 1399.33,-442.1"/>
</g>
<!-- Swit.src.loader.loader&#45;&gt;Swit.src.core.terminal -->
<g id="edge35" class="edge">
<title>Swit.src.loader.loader&#45;&gt;Swit.src.core.terminal</title>
<path fill="none" stroke="black" d="M1704.77,-108.12C1743.74,-118.01 1792.95,-130.49 1833.78,-140.84"/>
<polygon fill="black" stroke="black" points="1843.33,-143.27 1832.53,-145.17 1839.67,-142.34 1833.64,-140.81 1833.64,-140.81 1833.64,-140.81 1839.67,-142.34 1834.74,-136.45 1843.33,-143.27"/>
</g>
<!-- Swit.src.loader.loader&#45;&gt;Swit.src.core.terminal.print_plugin_dir_tree -->
<g id="edge36" class="edge">
<title>Swit.src.loader.loader&#45;&gt;Swit.src.core.terminal.print_plugin_dir_tree</title>
<path fill="none" stroke="black" d="M1690.1,-108.4C1716.5,-117.78 1748.62,-130.24 1776.25,-144 1787.05,-149.38 1843.51,-185.18 1881.9,-209.7"/>
<polygon fill="black" stroke="black" points="1890.21,-215.01 1879.36,-213.42 1887.02,-212.98 1881.78,-209.63 1881.78,-209.63 1881.78,-209.63 1887.02,-212.98 1884.21,-205.83 1890.21,-215.01"/>
</g>
<!-- Swit.src.loader.loader&#45;&gt;Swit.src.handler.file.config -->
<g id="edge37" class="edge">
<title>Swit.src.loader.loader&#45;&gt;Swit.src.handler.file.config</title>
<path fill="none" stroke="black" d="M1634.43,-108.41C1630.53,-132.5 1623.44,-176.25 1618.79,-204.97"/>
<polygon fill="black" stroke="black" points="1617.22,-214.69 1614.37,-204.1 1617.82,-210.95 1618.82,-204.82 1618.82,-204.82 1618.82,-204.82 1617.82,-210.95 1623.26,-205.53 1617.22,-214.69"/>
</g>
<!-- Swit.src.loader.loader&#45;&gt;Swit.src.handler.file.extract -->
<g id="edge38" class="edge">
<title>Swit.src.loader.loader&#45;&gt;Swit.src.handler.file.extract</title>
<path fill="none" stroke="black" d="M1569.8,-92.15C1374.17,-95.9 815.71,-109.52 741.25,-144 691.62,-166.99 656.25,-178.3 656.25,-233 656.25,-233 656.25,-233 656.25,-307 656.25,-346.26 656.25,-391.62 656.25,-420.31"/>
<polygon fill="black" stroke="black" points="656.25,-430.29 651.75,-420.29 656.25,-426.51 656.25,-420.29 656.25,-420.29 656.25,-420.29 656.25,-426.51 660.75,-420.29 656.25,-430.29"/>
</g>
<!-- Swit.src.loader.loader&#45;&gt;Swit.src.handler.file.path_manager -->
<g id="edge39" class="edge">
<title>Swit.src.loader.loader&#45;&gt;Swit.src.handler.file.path_manager</title>
<path fill="none" stroke="black" d="M1656.56,-108.18C1682.19,-132.99 1724.25,-181.54 1724.25,-233 1724.25,-233 1724.25,-233 1724.25,-307 1724.25,-371.89 1655.85,-408.56 1595.33,-428.31"/>
<polygon fill="black" stroke="black" points="1586.08,-431.21 1594.28,-423.93 1589.69,-430.08 1595.63,-428.22 1595.63,-428.22 1595.63,-428.22 1589.69,-430.08 1596.97,-432.52 1586.08,-431.21"/>
</g>
<!-- Swit.src.loader.loader&#45;&gt;Swit.src.loader.handler.download_package -->
<g id="edge40" class="edge">
<title>Swit.src.loader.loader&#45;&gt;Swit.src.loader.handler.download_package</title>
<path fill="none" stroke="black" d="M1704.92,-98.02C1799.32,-107.88 1975.9,-126.59 2126.25,-144 2127.08,-144.1 2127.92,-144.19 2128.75,-144.29"/>
<polygon fill="black" stroke="black" points="2138.55,-145.44 2128.1,-148.74 2134.8,-145 2128.62,-144.27 2128.62,-144.27 2128.62,-144.27 2134.8,-145 2129.14,-139.81 2138.55,-145.44"/>
</g>
<!-- Swit.src.loader.loader&#45;&gt;Swit.src.loader.handler.launch_multi_thread -->
<g id="edge41" class="edge">
<title>Swit.src.loader.loader&#45;&gt;Swit.src.loader.handler.launch_multi_thread</title>
<path fill="none" stroke="black" d="M1598.29,-108.48C1577.64,-117.75 1552.08,-129.22 1530.12,-139.07"/>
<polygon fill="black" stroke="black" points="1521.1,-143.12 1528.38,-134.92 1524.55,-141.57 1530.22,-139.03 1530.22,-139.03 1530.22,-139.03 1524.55,-141.57 1532.06,-143.13 1521.1,-143.12"/>
</g>
<!-- Swit.src.loader.loader&#45;&gt;Swit.src.loader.load.load_main_event -->
<g id="edge42" class="edge">
<title>Swit.src.loader.loader&#45;&gt;Swit.src.loader.load.load_main_event</title>
<path fill="none" stroke="black" d="M1686.69,-108.44C1704.84,-116.86 1724.33,-128.55 1738.25,-144 1772.83,-182.39 1748.45,-212.09 1781.25,-252 1791.04,-263.91 1804.22,-274.04 1817.14,-282.16"/>
<polygon fill="black" stroke="black" points="1825.41,-287.09 1814.52,-285.84 1822.17,-285.16 1816.82,-281.97 1816.82,-281.97 1816.82,-281.97 1822.17,-285.16 1819.13,-278.11 1825.41,-287.09"/>
</g>
<!-- Swit.src.loader.loader&#45;&gt;Swit.src.loader.load.load_mapping -->
<g id="edge43" class="edge">
<title>Swit.src.loader.loader&#45;&gt;Swit.src.loader.load.load_mapping</title>
<path fill="none" stroke="black" d="M1569.77,-91.56C1379.58,-93.65 848.6,-103.11 782.25,-144 713.97,-186.08 709.37,-270.63 769.25,-324 791.22,-343.58 819.77,-356 848.15,-363.86"/>
<polygon fill="black" stroke="black" points="857.82,-366.36 847.01,-368.22 854.16,-365.41 848.14,-363.86 848.14,-363.86 848.14,-363.86 854.16,-365.41 849.26,-359.5 857.82,-366.36"/>
</g>
<!-- Swit.src.loader.loader&#45;&gt;Swit.src.loader.load.load_object -->
<g id="edge44" class="edge">
<title>Swit.src.loader.loader&#45;&gt;Swit.src.loader.load.load_object</title>
<path fill="none" stroke="black" d="M1569.63,-92.5C1429.21,-96.3 1116.34,-108.69 1084.25,-144 1073.49,-155.84 1076.81,-165.84 1084.25,-180 1090.63,-192.13 1101.17,-202.02 1112.44,-209.83"/>
<polygon fill="black" stroke="black" points="1120.54,-215 1109.69,-213.42 1117.36,-212.97 1112.11,-209.62 1112.11,-209.62 1112.11,-209.62 1117.36,-212.97 1114.53,-205.83 1120.54,-215"/>
</g>
<!-- Swit.src.loader.loader&#45;&gt;Swit.src.loader.utils.check_python_version -->
<g id="edge45" class="edge">
<title>Swit.src.loader.loader&#45;&gt;Swit.src.loader.utils.check_python_version</title>
<path fill="none" stroke="black" d="M1569.72,-94.4C1440.99,-101.38 1165.13,-118.78 1073.25,-144 1018.43,-159.05 959.93,-189.25 923.02,-210.27"/>
<polygon fill="black" stroke="black" points="914.71,-215.06 921.13,-206.17 917.99,-213.17 923.37,-210.07 923.37,-210.07 923.37,-210.07 917.99,-213.17 925.62,-213.96 914.71,-215.06"/>
</g>
<!-- Swit.src.loader.utils.get_plugin_info -->
<g id="node36" class="node">
<title>Swit.src.loader.utils.get_plugin_info</title>
<polygon fill="none" stroke="black" points="992.25,-324 778.25,-324 778.25,-288 992.25,-288 992.25,-324"/>
<text xml:space="preserve" text-anchor="start" x="786.25" y="-300.95" font-family="Times New Roman,serif" font-size="14.00">Swit.src.loader.utils.get_plugin_info</text>
</g>
<!-- Swit.src.loader.loader&#45;&gt;Swit.src.loader.utils.get_plugin_info -->
<g id="edge46" class="edge">
<title>Swit.src.loader.loader&#45;&gt;Swit.src.loader.utils.get_plugin_info</title>
<path fill="none" stroke="black" d="M1569.79,-91.44C1449.85,-93.33 1192.11,-102.37 979.25,-144 874.96,-164.4 814.07,-130.29 751.25,-216 741.79,-228.91 742.25,-238.77 751.25,-252 760.42,-265.49 773.62,-275.55 788.19,-283.05"/>
<polygon fill="black" stroke="black" points="796.84,-287.1 785.87,-286.93 793.41,-285.49 787.78,-282.85 787.78,-282.85 787.78,-282.85 793.41,-285.49 789.69,-278.78 796.84,-287.1"/>
</g>
<!-- Swit.src.utils.calculator.thread_calculator -->
<g id="node43" class="node">
<title>Swit.src.utils.calculator.thread_calculator</title>
<polygon fill="none" stroke="black" points="1334.75,-180 1093.75,-180 1093.75,-144 1334.75,-144 1334.75,-180"/>
<text xml:space="preserve" text-anchor="start" x="1101.75" y="-156.95" font-family="Times New Roman,serif" font-size="14.00">Swit.src.utils.calculator.thread_calculator</text>
</g>
<!-- Swit.src.loader.loader&#45;&gt;Swit.src.utils.calculator.thread_calculator -->
<g id="edge47" class="edge">
<title>Swit.src.loader.loader&#45;&gt;Swit.src.utils.calculator.thread_calculator</title>
<path fill="none" stroke="black" d="M1569.76,-102.17C1505.49,-112.8 1407.43,-129.03 1330.57,-141.75"/>
<polygon fill="black" stroke="black" points="1321.07,-143.32 1330.2,-137.25 1324.8,-142.71 1330.94,-141.69 1330.94,-141.69 1330.94,-141.69 1324.8,-142.71 1331.67,-146.13 1321.07,-143.32"/>
</g>
<!-- Swit.src.loader.loader&#45;&gt;Swit.src.utils.logger -->
<g id="edge48" class="edge">
<title>Swit.src.loader.loader&#45;&gt;Swit.src.utils.logger</title>
<path fill="none" stroke="black" d="M1704.92,-90.65C1778.23,-92.62 1897.19,-102.76 1990.25,-144 2028.09,-160.77 2116.12,-239.28 2160.56,-280.14"/>
<polygon fill="black" stroke="black" points="2167.69,-286.72 2157.29,-283.24 2164.91,-284.15 2160.34,-279.94 2160.34,-279.94 2160.34,-279.94 2164.91,-284.15 2163.39,-276.63 2167.69,-286.72"/>
</g>
<!-- Swit.src.loader.mapping_valid_check -->
<g id="node33" class="node">
<title>Swit.src.loader.mapping_valid_check</title>
<polygon fill="none" stroke="black" points="3924.62,-36 3703.88,-36 3703.88,0 3924.62,0 3924.62,-36"/>
<text xml:space="preserve" text-anchor="start" x="3711.88" y="-12.95" font-family="Times New Roman,serif" font-size="14.00">Swit.src.loader.mapping_valid_check</text>
</g>
<!-- Swit.src.loader.utils -->
<g id="node34" class="node">
<title>Swit.src.loader.utils</title>
<polygon fill="none" stroke="black" points="4066.25,-36 3942.25,-36 3942.25,0 4066.25,0 4066.25,-36"/>
<text xml:space="preserve" text-anchor="start" x="3950.25" y="-12.95" font-family="Times New Roman,serif" font-size="14.00">Swit.src.loader.utils</text>
</g>
<!-- Swit.src.loader.utils.check_python_version&#45;&gt;Swit.src.loader.utils.get_plugin_info -->
<g id="edge49" class="edge">
<title>Swit.src.loader.utils.check_python_version&#45;&gt;Swit.src.loader.utils.get_plugin_info</title>
<path fill="none" stroke="black" d="M885.25,-252.3C885.25,-259.68 885.25,-268.48 885.25,-276.75"/>
<polygon fill="black" stroke="black" points="885.25,-286.68 880.75,-276.68 885.25,-282.9 885.25,-276.68 885.25,-276.68 885.25,-276.68 885.25,-282.9 889.75,-276.68 885.25,-286.68"/>
</g>
<!-- Swit.src.loader.utils.get_plugin_info&#45;&gt;Swit.src.loader.load.load_mapping -->
<g id="edge50" class="edge">
<title>Swit.src.loader.utils.get_plugin_info&#45;&gt;Swit.src.loader.load.load_mapping</title>
<path fill="none" stroke="black" d="M904.28,-324.3C913.54,-332.72 924.83,-342.98 934.98,-352.21"/>
<polygon fill="black" stroke="black" points="942.27,-358.83 931.84,-355.44 939.47,-356.29 934.87,-352.11 934.87,-352.11 934.87,-352.11 939.47,-356.29 937.89,-348.78 942.27,-358.83"/>
</g>
<!-- Swit.src.local&#45;&gt;Swit.src.local._add_intents -->
<g id="edge51" class="edge">
<title>Swit.src.local&#45;&gt;Swit.src.local._add_intents</title>
<path fill="none" stroke="black" d="M2722.35,-108.3C2718.34,-116.1 2713.51,-125.49 2709.05,-134.17"/>
<polygon fill="black" stroke="black" points="2704.6,-142.81 2705.18,-131.86 2706.33,-139.45 2709.18,-133.92 2709.18,-133.92 2709.18,-133.92 2706.33,-139.45 2713.18,-135.98 2704.6,-142.81"/>
</g>
<!-- Swit.src.utils -->
<g id="node40" class="node">
<title>Swit.src.utils</title>
<polygon fill="none" stroke="black" points="4171.88,-36 4084.62,-36 4084.62,0 4171.88,0 4171.88,-36"/>
<text xml:space="preserve" text-anchor="start" x="4092.62" y="-12.95" font-family="Times New Roman,serif" font-size="14.00">Swit.src.utils</text>
</g>
<!-- Swit.src.utils.calculator -->
<g id="node42" class="node">
<title>Swit.src.utils.calculator</title>
<polygon fill="none" stroke="black" points="4334.38,-36 4190.12,-36 4190.12,0 4334.38,0 4334.38,-36"/>
<text xml:space="preserve" text-anchor="start" x="4198.12" y="-12.95" font-family="Times New Roman,serif" font-size="14.00">Swit.src.utils.calculator</text>
</g>
</g>
</svg>
